<svg width="330" height="443" viewBox="0 0 330 443" fill="none" xmlns="http://www.w3.org/2000/svg">
    <path
        d="M201.348 106.896C203.531 106.169 205.841 105.896 208.134 106.093C210.427 106.291 212.656 106.955 214.684 108.046C216.706 109.133 218.486 110.623 219.913 112.422V112.423L279.177 187.626C281.646 190.841 282.977 194.788 282.958 198.843V198.871C282.958 206.13 283.269 217.238 284.589 228.979C285.899 240.634 288.245 253.328 292.49 263.544L292.536 263.653L292.586 263.76C300.638 281.16 310.638 297.592 322.392 312.739L322.404 312.756L322.417 312.771C323.092 313.629 323.494 314.67 323.57 315.759C323.647 316.847 323.393 317.932 322.845 318.875C317.649 327.641 307.502 344.363 293.051 365.878L292.982 365.978L292.919 366.082C283.351 381.651 277.37 399.155 275.406 417.322C273.663 430.017 261.389 438.968 250.257 435.946H250.258C229.793 430.287 204.112 420.821 180.976 418.833L179.876 418.744H179.875L145.298 416.129L145.28 416.127L144.896 416.094C141.055 415.726 137.459 414.047 134.71 411.341L134.438 411.067L134.431 411.059L74.7588 349.754H74.7598C72.4019 347.33 70.8294 344.251 70.249 340.92C69.6689 337.589 70.1067 334.161 71.5049 331.084C71.5052 331.083 71.5063 331.082 71.5068 331.081C71.5079 331.078 71.5096 331.075 71.5117 331.07C71.5162 331.06 71.5224 331.045 71.5312 331.025C71.549 330.986 71.5755 330.928 71.6104 330.851C71.6802 330.698 71.7847 330.47 71.9199 330.174C72.1904 329.579 72.5873 328.707 73.0928 327.596C74.1039 325.375 75.5498 322.196 77.2891 318.369C80.7678 310.714 85.4211 300.462 90.1182 290.076C94.8144 279.692 99.5579 269.166 103.216 260.967C105.044 256.87 106.607 253.341 107.759 250.697C108.817 248.267 109.694 246.212 109.991 245.317L109.992 245.318C110.531 243.702 111.182 240.024 111.851 235.935C112.568 231.549 113.418 225.912 114.313 219.821C116.115 207.559 118.072 193.61 119.549 183.681C120.126 179.937 121.945 176.499 124.707 173.917L124.978 173.669L124.987 173.66L195.435 110.323C197.151 108.79 199.164 107.623 201.348 106.896Z"
        stroke="white" stroke-width="12" />
    <path
        d="M107.71 250.496C121.742 260.622 137.271 275.414 146.073 297.019L146.08 297.036L146.086 297.052C156.677 322.615 158.183 359.125 134.174 410.797L74.8433 349.756L74.8345 349.747L74.8267 349.738L74.3921 349.278C72.2648 346.936 70.839 344.038 70.2847 340.914C69.7305 337.79 70.0724 334.578 71.2642 331.647L71.5132 331.065L71.5171 331.055L107.71 250.496Z"
        stroke="white" stroke-width="12" />
    <path
        d="M279.177 187.626L279.178 187.627C281.639 190.748 282.958 194.73 282.958 198.871V198.905C282.999 206.134 283.311 217.254 284.62 229.004C285.918 240.661 288.242 253.365 292.494 263.551L292.54 263.66L292.589 263.767C300.667 281.169 310.693 297.598 322.474 312.739V312.74C323.143 313.601 323.538 314.645 323.607 315.733C323.676 316.822 323.417 317.906 322.863 318.845C313.937 333.84 304.618 348.597 294.915 363.1C278.273 331.399 258.289 313.621 235.883 305.239L235.858 305.229L235.832 305.22L234.393 304.71C228.358 302.621 222.26 301.175 216.066 300.328C204.177 269.47 200.692 246.549 201.439 228.465L201.438 228.464C202.223 212.797 206.398 197.486 213.674 183.589L213.729 183.485L213.779 183.38C215.282 180.215 216.875 177.107 218.492 174.036L218.496 174.027L218.501 174.018C223.257 164.908 228.186 155.55 230.842 145.122C232.169 140.016 232.943 134.696 232.989 129.014L279.177 187.626Z"
        stroke="white" stroke-width="12" />
    <path
        d="M195.449 110.309C198.767 107.336 203.125 105.796 207.574 106.021C211.622 106.227 215.448 107.881 218.364 110.658C221.53 120.849 221.835 131.723 219.231 142.088C217.184 149.88 213.735 157.106 209.692 165.05L207.926 168.502L207.925 168.504L203.02 178.067L202.966 178.177C196.503 191.433 190.504 206.716 189.493 226.997L189.449 227.967V227.969C188.663 246.978 192.13 269.97 202.907 299.421C188.873 299.226 174.865 300.775 161.205 304.035C160.053 299.974 158.695 296.124 157.188 292.415L157.183 292.402L157.177 292.389L156.63 291.084C145.747 265.627 126.84 249.004 111.291 238.413L119.549 183.681C120.126 179.936 121.944 176.498 124.707 173.916L124.977 173.669L124.987 173.66L195.45 110.31L195.449 110.309Z"
        stroke="white" stroke-width="12" />
    <path
        d="M163.842 315.885C188.119 310.475 210.968 308.729 231.754 316.475V316.476C252.015 324.083 271.239 341.14 287.68 375.285C281.275 388.471 277.126 402.646 275.41 417.218C273.674 430.035 261.371 438.961 250.34 435.946C245.528 434.597 240.122 432.964 234.334 431.224C228.563 429.49 222.442 427.66 216.311 425.956C204.148 422.574 191.531 419.565 181.157 418.824H181.156L145.348 416.131C145.241 416.122 145.134 416.112 145.028 416.101C164.042 375.281 168.221 342.347 163.842 315.885Z"
        stroke="white" stroke-width="12" />
    <mask id="path-6-inside-1_0_1" fill="white">
        <path fill-rule="evenodd" clip-rule="evenodd"
            d="M195.607 226.99C194.708 246.609 197.16 269.006 210.321 302.03L206.234 301.622C194.381 267.208 191.765 249.551 192.664 229.688C193.482 209.824 199.94 194.538 206.316 181.46C207.95 178.19 211.711 172.059 213.345 168.953C218.087 159.716 221.275 154.893 223.972 146.474C227.896 134.703 227.078 129.144 226.588 123.585C229.612 143.613 218.087 161.024 209.422 178.762C201.4 193.662 196.662 210.107 195.525 226.99H195.607Z" />
    </mask>
    <path fill-rule="evenodd" clip-rule="evenodd"
        d="M195.607 226.99C194.708 246.609 197.16 269.006 210.321 302.03L206.234 301.622C194.381 267.208 191.765 249.551 192.664 229.688C193.482 209.824 199.94 194.538 206.316 181.46C207.95 178.19 211.711 172.059 213.345 168.953C218.087 159.716 221.275 154.893 223.972 146.474C227.896 134.703 227.078 129.144 226.588 123.585C229.612 143.613 218.087 161.024 209.422 178.762C201.4 193.662 196.662 210.107 195.525 226.99H195.607Z"
        fill="url(#paint0_radial_0_1)" />
    <path
        d="M195.607 226.99L207.595 227.54L208.17 214.99H195.607V226.99ZM210.321 302.03L209.127 313.971L228.78 315.936L221.468 297.588L210.321 302.03ZM206.234 301.622L194.888 305.529L197.391 312.797L205.04 313.562L206.234 301.622ZM192.664 229.688L204.652 230.231L204.653 230.206L204.654 230.181L192.664 229.688ZM206.316 181.46L195.582 176.093L195.555 176.147L195.529 176.201L206.316 181.46ZM213.345 168.953L223.964 174.542L223.993 174.487L224.021 174.432L213.345 168.953ZM223.972 146.474L212.588 142.679L212.566 142.745L212.544 142.812L223.972 146.474ZM226.588 123.585L238.453 121.794L214.634 124.64L226.588 123.585ZM209.422 178.762L219.988 184.451L220.1 184.242L220.204 184.029L209.422 178.762ZM195.525 226.99L183.553 226.185L182.691 238.99H195.525V226.99ZM195.607 226.99L183.62 226.441C182.637 247.887 185.428 271.982 199.174 306.473L210.321 302.03L221.468 297.588C208.892 266.03 206.779 245.33 207.595 227.54L195.607 226.99ZM210.321 302.03L211.515 290.09L207.428 289.681L206.234 301.622L205.04 313.562L209.127 313.971L210.321 302.03ZM206.234 301.622L217.58 297.714C206.014 264.132 203.845 248.06 204.652 230.231L192.664 229.688L180.677 229.145C179.685 251.043 182.748 270.283 194.888 305.529L206.234 301.622ZM192.664 229.688L204.654 230.181C205.369 212.802 210.967 199.302 217.102 186.718L206.316 181.46L195.529 176.201C188.912 189.775 181.594 206.846 180.675 229.195L192.664 229.688ZM206.316 181.46L217.049 186.826C217.668 185.587 218.812 183.582 220.216 181.157C221.48 178.974 223.002 176.371 223.964 174.542L213.345 168.953L202.726 163.364C202.054 164.641 200.879 166.657 199.445 169.132C198.152 171.367 196.598 174.062 195.582 176.093L206.316 181.46ZM213.345 168.953L224.021 174.432C228.244 166.205 232.302 159.805 235.4 150.135L223.972 146.474L212.544 142.812C210.247 149.981 207.929 153.227 202.67 163.473L213.345 168.953ZM223.972 146.474L235.356 150.268C237.586 143.579 238.61 138.22 238.911 133.457C239.206 128.796 238.759 125 238.541 122.531L226.588 123.585L214.634 124.64C214.907 127.73 215.114 129.492 214.959 131.943C214.811 134.292 214.282 137.597 212.588 142.679L223.972 146.474ZM226.588 123.585L214.722 125.377C215.801 132.521 214.387 139.629 211.228 147.621C207.854 156.157 203.477 163.593 198.639 173.495L209.422 178.762L220.204 184.029C224.032 176.193 229.749 166.054 233.548 156.443C237.562 146.288 240.399 134.677 238.453 121.794L226.588 123.585ZM209.422 178.762L198.856 173.074C190.022 189.482 184.804 207.591 183.553 226.185L195.525 226.99L207.498 227.796C208.52 212.622 212.778 197.842 219.988 184.451L209.422 178.762ZM195.525 226.99V238.99H195.607V226.99V214.99H195.525V226.99Z"
        fill="white" mask="url(#path-6-inside-1_0_1)" />
    <mask id="path-8-inside-2_0_1" fill="white">
        <path fill-rule="evenodd" clip-rule="evenodd"
            d="M155.553 296.145C157.188 299.742 158.578 302.684 159.559 307.18L156.044 307.998C154.654 302.766 153.591 299.006 151.548 294.51C139.613 266.472 120.485 252.004 104.954 241.377C123.755 251.513 143.128 267.453 155.553 296.145Z" />
    </mask>
    <path fill-rule="evenodd" clip-rule="evenodd"
        d="M155.553 296.145C157.188 299.742 158.578 302.684 159.559 307.18L156.044 307.998C154.654 302.766 153.591 299.006 151.548 294.51C139.613 266.472 120.485 252.004 104.954 241.377C123.755 251.513 143.128 267.453 155.553 296.145Z"
        fill="url(#paint1_radial_0_1)" />
    <path
        d="M155.553 296.145L144.541 300.914L144.584 301.012L144.629 301.111L155.553 296.145ZM159.559 307.18L162.277 318.868L173.806 316.187L171.283 304.622L159.559 307.18ZM156.044 307.998L144.446 311.078L147.432 322.321L158.762 319.686L156.044 307.998ZM151.548 294.51L140.506 299.21L140.563 299.344L140.623 299.476L151.548 294.51ZM104.954 241.377L110.649 230.814L98.178 251.281L104.954 241.377ZM155.553 296.145L144.629 301.111C146.301 304.789 147.161 306.652 147.834 309.738L159.559 307.18L171.283 304.622C169.994 298.717 168.075 294.694 166.478 291.179L155.553 296.145ZM159.559 307.18L156.84 295.492L153.325 296.31L156.044 307.998L158.762 319.686L162.277 318.868L159.559 307.18ZM156.044 307.998L167.641 304.917C166.234 299.617 164.962 295.021 162.472 289.544L151.548 294.51L140.623 299.476C142.221 302.991 143.074 305.915 144.446 311.078L156.044 307.998ZM151.548 294.51L162.589 289.81C149.286 258.557 127.818 242.48 111.73 231.473L104.954 241.377L98.178 251.281C113.153 261.527 129.94 274.387 140.506 299.21L151.548 294.51ZM104.954 241.377L99.2596 251.94C116.279 261.116 133.427 275.249 144.541 300.914L155.553 296.145L166.565 291.376C152.829 259.657 131.231 241.911 110.649 230.814L104.954 241.377Z"
        fill="white" mask="url(#path-8-inside-2_0_1)" />
    <mask id="path-10-inside-3_0_1" fill="white">
        <path fill-rule="evenodd" clip-rule="evenodd"
            d="M159.722 310.777C166.261 341.431 158.905 380.422 137.243 418.351C155.39 380.749 164.218 344.7 156.861 311.267L159.722 310.695V310.777Z" />
    </mask>
    <path fill-rule="evenodd" clip-rule="evenodd"
        d="M159.722 310.777C166.261 341.431 158.905 380.422 137.243 418.351C155.39 380.749 164.218 344.7 156.861 311.267L159.722 310.695V310.777Z"
        fill="url(#paint2_radial_0_1)" />
    <path
        d="M159.722 310.777H147.722V312.043L147.986 313.281L159.722 310.777ZM137.243 418.351L126.435 413.135L147.663 424.302L137.243 418.351ZM156.861 311.267L154.508 299.5L142.513 301.899L145.141 313.846L156.861 311.267ZM159.722 310.695H171.722V296.057L157.369 298.928L159.722 310.695ZM159.722 310.777L147.986 313.281C153.754 340.32 147.44 376.299 126.822 412.399L137.243 418.351L147.663 424.302C170.369 384.545 178.769 342.542 171.458 308.273L159.722 310.777ZM137.243 418.351L148.05 423.566C166.713 384.895 176.772 345.913 168.581 308.689L156.861 311.267L145.141 313.846C151.664 343.488 144.066 376.603 126.435 413.135L137.243 418.351ZM156.861 311.267L159.214 323.034L162.075 322.462L159.722 310.695L157.369 298.928L154.508 299.5L156.861 311.267ZM159.722 310.695H147.722V310.777H159.722H171.722V310.695H159.722Z"
        fill="white" mask="url(#path-10-inside-3_0_1)" />
    <mask id="path-12-inside-4_0_1" fill="white">
        <path fill-rule="evenodd" clip-rule="evenodd"
            d="M234.599 307.916C270.157 321.24 283.89 350.422 294.108 374.863C281.437 349.36 263.863 321.158 233.291 310.695C210.076 302.684 190.457 303.665 156.861 311.267L156.125 307.998C191.765 299.823 210.403 298.842 234.599 307.998V307.916Z" />
    </mask>
    <path fill-rule="evenodd" clip-rule="evenodd"
        d="M234.599 307.916C270.157 321.24 283.89 350.422 294.108 374.863C281.437 349.36 263.863 321.158 233.291 310.695C210.076 302.684 190.457 303.665 156.861 311.267L156.125 307.998C191.765 299.823 210.403 298.842 234.599 307.998V307.916Z"
        fill="url(#paint3_radial_0_1)" />
    <path
        d="M234.599 307.916L238.809 296.679L222.599 290.605V307.916H234.599ZM294.108 374.863L283.361 380.202L305.179 370.235L294.108 374.863ZM233.291 310.695L229.376 322.039L229.391 322.044L229.405 322.049L233.291 310.695ZM156.861 311.267L145.154 313.902L147.791 325.623L159.509 322.971L156.861 311.267ZM156.125 307.998L153.443 296.301L141.795 298.973L144.418 310.632L156.125 307.998ZM234.599 307.998L230.352 319.221L246.599 325.368V307.998H234.599ZM234.599 307.916L230.388 319.153C260.798 330.548 272.889 355.219 283.036 379.492L294.108 374.863L305.179 370.235C294.891 345.625 279.516 311.932 238.809 296.679L234.599 307.916ZM294.108 374.863L304.854 369.524C292.111 343.873 272.709 311.503 237.176 299.342L233.291 310.695L229.405 322.049C255.016 330.814 270.764 354.846 283.361 380.202L294.108 374.863ZM233.291 310.695L237.205 299.352C210.902 290.275 188.692 291.761 154.213 299.563L156.861 311.267L159.509 322.971C192.223 315.569 209.25 315.094 229.376 322.039L233.291 310.695ZM156.861 311.267L168.568 308.633L167.833 305.363L156.125 307.998L144.418 310.632L145.154 313.902L156.861 311.267ZM156.125 307.998L158.808 319.694C193.58 311.719 209.432 311.306 230.352 319.221L234.599 307.998L238.845 296.774C211.373 286.379 189.95 287.928 153.443 296.301L156.125 307.998ZM234.599 307.998H246.599V307.916H234.599H222.599V307.998H234.599Z"
        fill="white" mask="url(#path-12-inside-4_0_1)" />
    <path
        d="M134.582 97.8442L129.192 101.913L66.5587 85.4107L65.2868 78.5241L81.5732 66.2307L77.4048 60.7084C69.3355 49.9034 62.1273 40.5967 51.2171 34.1892C40.6166 27.9638 26.8406 24.6385 5.93768 24.6014L3.88148 18.4782C7.36598 15.9517 11.1274 13.8311 15.0882 12.1651L15.2193 12.1102L15.3445 12.0427C30.9793 3.64476 48.9128 1.02779 65.8287 4.62329L66.6332 4.79913L66.6345 4.79932C83.9558 8.6837 99.0193 18.6634 109.087 32.8908L109.114 32.928L115.127 40.8947L130.985 28.9248L137.229 32.0201L134.582 97.8442ZM113.522 49.9053L103.875 37.1249C98.864 29.76 92.3411 23.5495 84.7112 18.8774C77.0556 14.1897 68.4537 11.1533 59.4445 9.95003L59.3835 9.94221L59.3216 9.93635C47.9316 8.89064 36.3627 10.4781 25.5176 14.5656L26.1565 20.343C41.3476 22.4849 51.7253 27.044 60.0442 33.2805C68.4386 39.5737 74.8912 47.6802 82.147 57.2928L89.8702 67.5245L71.9712 81.0352L77.9323 82.6141L124.443 94.932L128.021 95.8802L128.207 92.1837L130.682 43.1237L131.006 36.7076L113.522 49.9053Z"
        fill="white" stroke="white" stroke-width="6" />
    <defs>
        <radialGradient id="paint0_radial_0_1" cx="0" cy="0" r="1" gradientUnits="userSpaceOnUse"
            gradientTransform="translate(232.964 185.628) rotate(102.037) scale(113.67 76.9595)">
            <stop stop-color="white" stop-opacity="0" />
            <stop offset="1" stop-color="white" stop-opacity="0.2" />
        </radialGradient>
        <radialGradient id="paint1_radial_0_1" cx="0" cy="0" r="1" gradientUnits="userSpaceOnUse"
            gradientTransform="translate(99.8044 247.181) rotate(45.3951) scale(83.8135 178.031)">
            <stop stop-color="white" stop-opacity="0.2" />
            <stop offset="1" stop-color="white" stop-opacity="0.4" />
        </radialGradient>
        <radialGradient id="paint2_radial_0_1" cx="0" cy="0" r="1" gradientUnits="userSpaceOnUse"
            gradientTransform="translate(162.992 286.826) rotate(80.3803) scale(97.8324 208.164)">
            <stop stop-color="white" stop-opacity="0.1" />
            <stop offset="1" stop-color="white" stop-opacity="0.3" />
        </radialGradient>
        <radialGradient id="paint3_radial_0_1" cx="0" cy="0" r="1" gradientUnits="userSpaceOnUse"
            gradientTransform="translate(293.208 366.934) rotate(-152.314) scale(149.545 470.944)">
            <stop stop-color="white" stop-opacity="0.2" />
            <stop offset="0.5" stop-color="white" stop-opacity="0.2" />
            <stop offset="1" stop-color="white" stop-opacity="0.3" />
        </radialGradient>
    </defs>
</svg>
    